<?xml version="1.0" encoding="UTF-8"?>
<svg version="1.1" xmlns="http://www.w3.org/2000/svg" width="512" height="512">
<path d="M0 0 C6.7499313 2.2499771 6.7499313 2.2499771 10.01977539 3.8125 C10.75302032 4.1607785 11.48626526 4.50905701 12.24172974 4.8678894 C13.01918549 5.2414859 13.79664124 5.6150824 14.59765625 6 C15.42135712 6.39236847 16.24505798 6.78473694 17.09371948 7.18899536 C19.75158237 8.45600303 22.40707873 9.72788423 25.0625 11 C26.87884388 11.86732583 28.69533173 12.73435025 30.51196289 13.60107422 C34.06894984 15.29855928 37.6251033 16.99777205 41.18066406 18.69824219 C45.20734789 20.62300218 49.23866818 22.53756194 53.2734375 24.4453125 C54.75251587 25.14527344 54.75251587 25.14527344 56.26147461 25.859375 C57.99865897 26.68097556 59.73641926 27.50135992 61.47485352 28.3203125 C66.88789233 30.88789233 66.88789233 30.88789233 68 32 C68.09530981 35.04402422 68.12551639 38.06531708 68.11352539 41.10961914 C68.11367142 42.06561508 68.11381744 43.02161102 68.1139679 44.00657654 C68.11326835 47.18279245 68.10547403 50.35895052 68.09765625 53.53515625 C68.09579222 55.73091093 68.09436825 57.92666602 68.09336853 60.12242126 C68.08954219 65.91420633 68.07971091 71.7059665 68.06866455 77.4977417 C68.05845293 83.40278791 68.05387145 89.30783813 68.04882812 95.21289062 C68.03808875 106.80860472 68.02101093 118.40430029 68 130 C63.65413535 128.650408 59.69243264 126.96803761 55.62744141 124.92724609 C55.01216269 124.61972727 54.39688396 124.31220844 53.76296043 123.99537086 C51.79060182 123.00845086 49.82104474 122.01608287 47.8515625 121.0234375 C46.62672843 120.40954843 45.40171279 119.79602151 44.17651367 119.18286133 C39.65714471 116.91795426 35.14127986 114.64606057 30.625 112.375 C20.51875 107.30125 10.4125 102.2275 0 97 C0 64.99 0 32.98 0 0 Z " fill="#000000" transform="translate(180,217)"/>
<path d="M0 0 C0 32.01 0 64.02 0 97 C-10.84875 102.445 -21.6975 107.89 -32.875 113.5 C-36.30245605 115.22283203 -39.72991211 116.94566406 -43.26123047 118.72070312 C-47.44165039 120.81542969 -47.44165039 120.81542969 -49.3977356 121.79431152 C-50.76671888 122.48034111 -52.13490772 123.16795742 -53.50247192 123.85681152 C-55.57125907 124.89849524 -57.64249269 125.93515333 -59.71435547 126.97070312 C-61.466418 127.85006531 -61.466418 127.85006531 -63.25387573 128.74719238 C-66 130 -66 130 -68 130 C-68 97.66 -68 65.32 -68 32 C-49.52230583 22.76115292 -49.52230583 22.76115292 -42.80078125 19.4921875 C-42.0329985 19.11820831 -41.26521576 18.74422913 -40.47416687 18.35891724 C-38.88264904 17.58405551 -37.29092009 16.80962727 -35.69897461 16.03564453 C-33.30308753 14.87042232 -30.90835357 13.70285331 -28.51367188 12.53515625 C-2.77453972 0 -2.77453972 0 0 0 Z " fill="#000000" transform="translate(332,217)"/>
<path d="M0 0 C3.12578143 1.6720747 5.39281175 3.7856235 7 7 C7.11169773 8.90584466 7.1592804 10.81557659 7.17700195 12.72460938 C7.19625481 14.52919617 7.19625481 14.52919617 7.21589661 16.37023926 C7.22328354 17.6814978 7.23067047 18.99275635 7.23828125 20.34375 C7.24235678 21.01450058 7.2464323 21.68525116 7.25063133 22.37632751 C7.27153242 25.94375297 7.28580251 29.51113979 7.29516602 33.07861328 C7.30393807 35.99777677 7.3245926 38.91645048 7.35668945 41.83544922 C7.72220566 75.82022248 2.03072943 103.35636002 -22.52734375 128.59765625 C-46.71253717 151.57536571 -74.59404904 156.73754812 -106.94482422 156.57641602 C-110.56289006 156.55902394 -114.17939764 156.58304719 -117.7972908 156.61790562 C-120.61302048 156.6398866 -123.42837485 156.63844049 -126.24416351 156.6301403 C-128.22167615 156.62893308 -130.19916604 156.64876912 -132.17657471 156.66908264 C-142.09803584 156.56569774 -142.09803584 156.56569774 -145.79589844 153.58569336 C-149.26065027 149.52109581 -149.38960532 146.77306965 -149.359375 141.55078125 C-148.78039966 137.44131496 -147.00085071 135.78650423 -144 133 C-141.61284416 131.80642208 -140.10224186 131.85675711 -137.43701172 131.82641602 C-136.48776825 131.81292618 -135.53852478 131.79943634 -134.56051636 131.78553772 C-133.01075607 131.76988014 -133.01075607 131.76988014 -131.4296875 131.75390625 C-129.23046559 131.72091305 -127.03124693 131.68770251 -124.83203125 131.65429688 C-121.37453945 131.60729759 -117.91705513 131.56298398 -114.45947266 131.52319336 C-85.65888757 131.17552112 -60.38993933 129.15097881 -38.78125 107.80859375 C-21.77203354 89.52368605 -17.8843546 68.42048114 -17.859375 44.3203125 C-17.84107442 42.15363509 -17.82150674 39.98696807 -17.80078125 37.8203125 C-17.77168672 34.45619556 -17.74999537 31.09276728 -17.74951172 27.72851562 C-17.74618165 24.44601529 -17.71170465 21.16504654 -17.671875 17.8828125 C-17.6789447 16.87960968 -17.6860144 15.87640686 -17.69329834 14.84280396 C-17.61384289 10.2840595 -17.518144 7.01547475 -14.58300781 3.38232422 C-10.11814655 -0.73564517 -5.90547398 -0.83201165 0 0 Z " fill="#000000" transform="translate(437,288)"/>
<path d="M0 0 C3.12578143 1.6720747 5.39281175 3.7856235 7 7 C7.10802683 8.482303 7.15623427 9.96918937 7.17358398 11.45532227 C7.18707382 12.38131729 7.20056366 13.30731232 7.21446228 14.2613678 C7.22490067 15.26953049 7.23533905 16.27769318 7.24609375 17.31640625 C7.27909326 19.46549793 7.31230366 21.61458638 7.34570312 23.76367188 C7.39265212 27.13986435 7.43695169 30.51605013 7.47680664 33.89233398 C7.83564681 62.87673535 9.7110132 88.47033065 31.19140625 110.21875 C49.18842304 126.96016096 70.0502134 131.11666146 93.80078125 131.140625 C96.01628652 131.1589289 98.23178165 131.1784969 100.44726562 131.19921875 C103.89479202 131.22829932 107.341649 131.25000409 110.78930664 131.25048828 C114.14788383 131.25381855 117.50496422 131.28830325 120.86328125 131.328125 C122.40560173 131.31752045 122.40560173 131.31752045 123.9790802 131.30670166 C128.59083954 131.38514481 131.95433544 131.4450318 135.63354492 134.41699219 C139.3095835 138.42942262 139.39005568 141.14913117 139.359375 146.44921875 C138.78039966 150.55868504 137.00085071 152.21349577 134 155 C131.33073246 156.33463377 129.26470418 156.14925215 126.27539062 156.17700195 C125.07233276 156.18983719 123.8692749 156.20267242 122.62976074 156.21589661 C120.66287292 156.22697701 120.66287292 156.22697701 118.65625 156.23828125 C117.98549942 156.24235678 117.31474884 156.2464323 116.62367249 156.25063133 C113.05624703 156.27153242 109.48886021 156.28580251 105.92138672 156.29516602 C103.00222323 156.30393807 100.08354952 156.3245926 97.16455078 156.35668945 C63.17977752 156.72220566 35.64363998 151.03072943 10.40234375 126.47265625 C-12.57536571 102.28746283 -17.73754812 74.40595096 -17.57641602 42.05517578 C-17.55902394 38.43710994 -17.58304719 34.82060236 -17.61790562 31.2027092 C-17.6398866 28.38697952 -17.63844049 25.57162515 -17.6301403 22.75583649 C-17.62893308 20.77832385 -17.64876912 18.80083396 -17.66908264 16.82342529 C-17.56569774 6.90196416 -17.56569774 6.90196416 -14.58569336 3.20410156 C-10.03202764 -0.67754268 -5.84082511 -0.82290338 0 0 Z " fill="#000000" transform="translate(85,288)"/>
<path d="M0 0 C1.20305786 -0.01283524 2.40611572 -0.02567047 3.64562988 -0.03889465 C4.95688843 -0.04628159 6.26814697 -0.05366852 7.61914062 -0.0612793 C8.2898912 -0.06535482 8.96064178 -0.06943035 9.65171814 -0.07362938 C13.21914359 -0.09453046 16.78653041 -0.10880055 20.35400391 -0.11816406 C23.27316739 -0.12693612 26.1918411 -0.14759064 29.11083984 -0.1796875 C63.09561311 -0.54520371 90.63175064 5.14627252 115.87304688 29.7043457 C138.85075634 53.88953913 144.01293874 81.771051 143.85180664 114.12182617 C143.83441457 117.73989201 143.85843781 121.3563996 143.89329624 124.97429276 C143.91527723 127.79002243 143.91383112 130.6053768 143.90553093 133.42116547 C143.9043237 135.3986781 143.92415975 137.37616799 143.94447327 139.35357666 C143.84108837 149.27503779 143.84108837 149.27503779 140.86108398 152.97290039 C136.79648644 156.43765222 134.04846027 156.56660728 128.82617188 156.53637695 C124.71670558 155.95740161 123.06189485 154.17785266 120.27539062 151.17700195 C119.09490912 148.81603895 119.13255423 147.35544139 119.10180664 144.72167969 C119.0883168 143.79568466 119.07482697 142.86968964 119.06092834 141.91563416 C119.04527077 140.40339012 119.04527077 140.40339012 119.02929688 138.8605957 C118.99629737 136.71150403 118.96308697 134.56241558 118.9296875 132.41333008 C118.8827385 129.0371376 118.83843894 125.66095182 118.79858398 122.28466797 C118.43708479 93.08549052 116.45838783 67.5741634 94.82617188 45.70043945 C77.09321473 29.05317356 55.98151503 25.06009464 32.47460938 25.03637695 C30.2591041 25.01807305 28.04360898 24.99850505 25.828125 24.9777832 C22.3805986 24.94870263 18.93374163 24.92699786 15.48608398 24.92651367 C12.1275068 24.9231834 8.77042641 24.88869871 5.41210938 24.84887695 C4.38389572 24.85594666 3.35568207 24.86301636 2.29631042 24.87030029 C-2.31544891 24.79185714 -5.67894482 24.73197016 -9.3581543 21.76000977 C-13.03419287 17.74757934 -13.11466506 15.02787079 -13.08398438 9.7277832 C-12.50500903 5.61831691 -10.72546008 3.96350618 -7.72460938 1.17700195 C-5.05534183 -0.15763182 -2.98931356 0.0277498 0 0 Z " fill="#000000" transform="translate(300.724609375,67.822998046875)"/>
<path d="M0 0 C3.61806584 0.01739207 7.23457342 -0.00663117 10.85246658 -0.0414896 C13.66819626 -0.06347059 16.48355063 -0.06202448 19.29933929 -0.05372429 C21.27685193 -0.05251706 23.25434182 -0.07235311 25.23175049 -0.09266663 C35.15321162 0.01071827 35.15321162 0.01071827 38.85107422 2.99072266 C42.31582605 7.0553202 42.4447811 9.80334637 42.41455078 15.02563477 C41.83557544 19.13510106 40.05602649 20.78991179 37.05517578 23.57641602 C34.66801994 24.76999393 33.15741764 24.7196589 30.4921875 24.75 C29.54294403 24.76348984 28.59370056 24.77697968 27.61569214 24.7908783 C26.58251862 24.80131668 25.54934509 24.81175507 24.48486328 24.82250977 C22.28564137 24.85550296 20.08642271 24.88871351 17.88720703 24.92211914 C14.42971523 24.96911843 10.97223091 25.01343204 7.51464844 25.05322266 C-21.4995106 25.40347309 -46.68801133 27.53221778 -68.42138672 49.02563477 C-85.33375429 67.04098283 -89.0607293 88.40646792 -89.08544922 112.25610352 C-89.1037498 114.42278093 -89.12331748 116.58944794 -89.14404297 118.75610352 C-89.1731375 122.12022046 -89.19482885 125.48364873 -89.1953125 128.84790039 C-89.19864257 132.13040073 -89.23311956 135.41136948 -89.27294922 138.69360352 C-89.26587952 139.69680634 -89.25880981 140.70000916 -89.25152588 141.73361206 C-89.33098133 146.29235652 -89.42668022 149.56094127 -92.36181641 153.1940918 C-96.36943746 156.8903457 -99.08600893 156.9665177 -104.39404297 156.93579102 C-108.50350926 156.35681567 -110.15831999 154.57726672 -112.94482422 151.57641602 C-114.27945799 148.90714847 -114.09407637 146.8411202 -114.12182617 143.85180664 C-114.13466141 142.64874878 -114.14749664 141.44569092 -114.16072083 140.20617676 C-114.16810776 138.89491821 -114.17549469 137.58365967 -114.18310547 136.23266602 C-114.187181 135.56191544 -114.19125652 134.89116486 -114.19545555 134.2000885 C-114.21635663 130.63266305 -114.23062673 127.06527623 -114.23999023 123.49780273 C-114.24876229 120.57863925 -114.26941681 117.65996554 -114.30151367 114.7409668 C-114.66702988 80.75619353 -108.97555365 53.220056 -84.41748047 27.97875977 C-60.23228704 5.0010503 -32.35077518 -0.1611321 0 0 Z " fill="#000000" transform="translate(181.94482421875,67.423583984375)"/>
<path d="M0 0 C1.01545898 0.44111115 2.03091797 0.88222229 3.07714844 1.33670044 C4.70378418 2.06311234 4.70378418 2.06311234 6.36328125 2.80419922 C7.49797852 3.30047821 8.63267578 3.7967572 9.80175781 4.30807495 C12.81820111 5.62960604 15.83029971 6.96044159 18.84051514 8.29608154 C21.8565261 9.63181662 24.87771195 10.95573086 27.8984375 12.28076172 C32.48387191 14.29328425 37.06705632 16.31078843 41.6484375 18.33251953 C48.30342652 21.26566161 54.97893915 24.14763174 61.67578125 26.98388672 C61.67578125 27.64388672 61.67578125 28.30388672 61.67578125 28.98388672 C55.0462291 32.23889738 48.41565336 35.49181615 41.78442383 38.7434082 C39.53745319 39.84548693 37.29070141 40.94801198 35.04418945 42.05102539 C29.63827757 44.70510001 24.22958438 47.35308866 18.81396484 49.98730469 C14.87609482 51.9028024 10.95339269 53.84453945 7.04150391 55.8125 C5.34294463 56.65252724 3.64422454 57.49222941 1.9453125 58.33154297 C1.18836594 58.72079453 0.43141937 59.11004608 -0.34846497 59.51109314 C-4.77974547 61.67494488 -7.44894284 62.59156063 -12.32421875 60.98388672 C-15.79178935 59.50934655 -19.15518835 57.85893959 -22.5234375 56.17138672 C-23.51310013 55.6836377 -24.50276276 55.19588867 -25.52241516 54.69335938 C-28.68920967 53.13087821 -31.85059814 51.55781058 -35.01171875 49.98388672 C-39.13931921 47.93957606 -43.2689303 45.89934233 -47.3984375 43.85888672 C-48.40220428 43.36187256 -49.40597107 42.8648584 -50.44015503 42.3527832 C-59.6824939 37.78456999 -68.98867442 33.35791681 -78.32421875 28.98388672 C-78.32421875 28.32388672 -78.32421875 27.66388672 -78.32421875 26.98388672 C-71.65583587 24.08829438 -64.98729477 21.19306672 -58.31856346 18.2982769 C-55.22043903 16.95341762 -52.1223648 15.60844295 -49.02441406 14.26318359 C-47.82655273 13.74304688 -46.62869141 13.22291016 -45.39453125 12.68701172 C-44.21231995 12.17358215 -43.03010864 11.66015259 -41.81207275 11.13116455 C-39.47268265 10.11626154 -37.13264116 9.10285858 -34.79193115 8.09100342 C-30.08228075 6.05482469 -25.37492138 4.01816075 -20.70019531 1.90283203 C-20.05378082 1.61393097 -19.40736633 1.32502991 -18.74136353 1.02737427 C-17.16080738 0.31901988 -15.58520798 -0.40036956 -14.01025391 -1.12109375 C-8.88894908 -2.82757471 -4.85653658 -2.1404952 0 0 Z " fill="#000000" transform="translate(264.32421875,174.01611328125)"/>
</svg>
