<svg width="67" height="39" viewBox="0 0 67 39" fill="none" xmlns="http://www.w3.org/2000/svg">
<g id="Group 18">
<path id="Subtract" fill-rule="evenodd" clip-rule="evenodd" d="M53.8264 39H66.3967V12.4091C66.3967 5.55574 60.8409 0 53.9876 0C51.694 0 49.5458 0.622247 47.7025 1.70713C51.3671 3.86396 53.8264 7.84932 53.8264 12.4091V39Z" fill="#7163BA"/>
<path id="Subtract_2" fill-rule="evenodd" clip-rule="evenodd" d="M29.9752 39H42.5455V12.4091C42.5455 5.55574 36.9897 0 30.1364 0C27.8428 0 25.6946 0.622247 23.8513 1.70713C27.5159 3.86396 29.9752 7.84932 29.9752 12.4091V39Z" fill="#7163BA"/>
<path id="Subtract_3" fill-rule="evenodd" clip-rule="evenodd" d="M6.12397 39H18.6942V12.4091C18.6942 5.55574 13.1385 0 6.28512 0C3.99155 0 1.8433 0.622247 0 1.70713C3.6646 3.86396 6.12397 7.84932 6.12397 12.4091V39Z" fill="#7163BA"/>
</g>
</svg>
