<svg width="18" height="18" viewBox="0 0 18 18" fill="none" xmlns="http://www.w3.org/2000/svg">
<g id="material-symbols:camera-outline">
<path id="Vector" d="M8.54988 6.75H14.5499C14.2124 5.8875 13.6966 5.14675 13.0026 4.52775C12.3086 3.90875 11.5119 3.4745 10.6124 3.225L8.54988 6.75ZM6.82488 8.25L9.82488 3.075C9.68738 3.05 9.54988 3.03125 9.41238 3.01875C9.27488 3.00625 9.13738 3 8.99988 3C8.17488 3 7.40613 3.15625 6.69363 3.46875C5.98113 3.78125 5.34988 4.2 4.79988 4.725L6.82488 8.25ZM3.18738 10.5H7.27488L4.27488 5.325C3.87488 5.8375 3.56238 6.40325 3.33738 7.02225C3.11238 7.64125 2.99988 8.3005 2.99988 9C2.99988 9.2625 3.01563 9.5155 3.04713 9.759C3.07863 10.0025 3.12538 10.2495 3.18738 10.5ZM7.38738 14.775L9.41238 11.25H3.44988C3.78738 12.1125 4.30313 12.8532 4.99713 13.4722C5.69113 14.0912 6.48788 14.5255 7.38738 14.775ZM8.99988 15C9.82488 15 10.5936 14.8438 11.3061 14.5312C12.0186 14.2188 12.6499 13.8 13.1999 13.275L11.1749 9.75L8.17488 14.925C8.31238 14.95 8.44663 14.9688 8.57763 14.9813C8.70863 14.9938 8.84938 15 8.99988 15ZM13.7249 12.675C14.1249 12.1625 14.4374 11.5968 14.6624 10.9777C14.8874 10.3588 14.9999 9.6995 14.9999 9C14.9999 8.7375 14.9841 8.4845 14.9526 8.241C14.9211 7.9975 14.8744 7.7505 14.8124 7.5H10.7249L13.7249 12.675ZM8.99988 16.5C7.97488 16.5 7.00613 16.303 6.09363 15.909C5.18113 15.515 4.38413 14.9775 3.70263 14.2965C3.02163 13.6155 2.48413 12.8188 2.09013 11.9062C1.69613 10.9937 1.49938 10.025 1.49988 9C1.49988 7.9625 1.69688 6.9905 2.09088 6.084C2.48488 5.1775 3.02238 4.384 3.70338 3.7035C4.38438 3.022 5.18088 2.4845 6.09288 2.091C7.00488 1.6975 7.97388 1.5005 8.99988 1.5C10.0374 1.5 11.0094 1.697 11.9159 2.091C12.8224 2.485 13.6159 3.0225 14.2964 3.7035C14.9779 4.3845 15.5154 5.17825 15.9089 6.08475C16.3024 6.99125 16.4994 7.963 16.4999 9C16.4999 10.025 16.3029 10.9937 15.9089 11.9062C15.5149 12.8188 14.9774 13.6157 14.2964 14.2972C13.6154 14.9782 12.8216 15.5157 11.9151 15.9097C11.0086 16.3037 10.0369 16.5005 8.99988 16.5Z" fill="black"/>
</g>
</svg>
