<svg width="18" height="18" viewBox="0 0 18 18" fill="none" xmlns="http://www.w3.org/2000/svg">
<g id="Book_open">
<path id="Vector 58" d="M3.9375 12.75H6.75C7.99264 12.75 9 13.7574 9 15V8.0625C9 6.13403 9 5.16979 8.57319 4.45769C8.31955 4.03453 7.96547 3.68045 7.54231 3.42681C6.83021 3 5.86597 3 3.9375 3C3.29468 3 2.97326 3 2.7359 3.14227C2.59484 3.22682 2.47682 3.34484 2.39227 3.4859C2.25 3.72326 2.25 4.04468 2.25 4.6875V11.0625C2.25 11.7053 2.25 12.0267 2.39227 12.2641C2.47682 12.4052 2.59484 12.5232 2.7359 12.6077C2.97326 12.75 3.29468 12.75 3.9375 12.75Z" stroke="white" stroke-width="1.5"/>
<path id="Vector 59" d="M14.0625 12.75H11.25C10.0074 12.75 9 13.7574 9 15V8.0625C9 6.13403 9 5.16979 9.42681 4.45769C9.68045 4.03453 10.0345 3.68045 10.4577 3.42681C11.1698 3 12.134 3 14.0625 3C14.7053 3 15.0267 3 15.2641 3.14227C15.4052 3.22682 15.5232 3.34484 15.6077 3.4859C15.75 3.72326 15.75 4.04468 15.75 4.6875V11.0625C15.75 11.7053 15.75 12.0267 15.6077 12.2641C15.5232 12.4052 15.4052 12.5232 15.2641 12.6077C15.0267 12.75 14.7053 12.75 14.0625 12.75Z" stroke="white" stroke-width="1.5"/>
</g>
</svg>
